
<svg width="138px" height="382px" viewBox="0 0 138 382" version="1.1" xmlns="http://www.w3.org/2000/svg" xmlns:xlink="http://www.w3.org/1999/xlink">
    <defs>
        <linearGradient x1="-1.11022302e-14%" y1="50%" x2="100%" y2="50%" id="linearGradient-1">
            <stop stop-color="#000000" offset="0%"></stop>
            <stop stop-color="#F3FF00" offset="100%"></stop>
        </linearGradient>
    </defs>
    <g id="Page-1" stroke="none" stroke-width="1" fill="none" fill-rule="evenodd">
        <g id="10.5”-iPad-Air-Copy" transform="translate(-944.000000, -576.000000)">
            <text id="Speed-(km/h)" font-family="SFProText-Semibold, SF Pro Text" font-size="24" font-weight="500" letter-spacing="-0.576" fill="#FFFFFF">
                <tspan x="943" y="594">Speed </tspan>
                <tspan x="1020.61431" y="594" font-size="20" letter-spacing="-0.48">(km/h)</tspan>
            </text>
            <g id="Group" transform="translate(951.000000, 635.000000)">
                <g id="Group-3" transform="translate(32.000000, 246.000000)" fill="#5F4EFE" fill-rule="nonzero">
                    <path d="M11.5943342,5.89706259 C13.4610118,6.32577218 15.379718,5.37625695 15.879909,3.77625445 C16.3800627,2.17625195 15.2722994,0.531646996 13.4056591,0.102937409 C11.5390188,-0.325772177 9.62027533,0.623743051 9.12012167,2.22374555 C8.61989325,3.82371561 9.72765649,5.46835304 11.5943342,5.89706259 Z" id="Path"></path>
                    <path d="M19.5965879,15.0062683 L13.6043194,8.45592241 C13.2902936,8.01955161 12.8228415,7.6834723 12.2535174,7.53594912 L10.9394415,7.19535551 C10.8177989,7.1638228 10.6957102,7.14209355 10.574102,7.12942657 C10.0621667,6.91418895 9.44822191,6.96283555 8.96844777,7.30972894 L0.644445433,13.3322726 C-0.06601707,13.846734 -0.211274205,14.8213842 0.320225492,15.5090059 C0.635830225,15.9175498 1.11941431,16.1328211 1.60927956,16.1328211 C1.94372793,16.1328211 2.28208916,16.0318222 2.5709902,15.8229854 L6.92540903,12.6725115 L5.92697221,16.2767733 C5.8790909,16.3848806 5.84267365,16.4996583 5.82036336,16.6203315 L4.68751565,22.7541155 L0.406583484,27.410916 C-0.183781042,28.0529568 -0.12412674,29.0359618 0.539243867,29.6066161 C0.845409639,29.8701298 1.22694988,29.9995958 1.60691124,29.9995958 C2.05047406,29.9995958 2.49166857,29.8234371 2.80885218,29.477925 L7.39124776,24.4930632 C7.58908852,24.278533 7.72095946,24.0154236 7.772788,23.7333137 L8.5367952,19.5977462 L11.9500975,24.018085 L13.6089188,28.9277871 C13.8310949,29.5835056 14.4607255,30 15.1374137,30 C15.3022696,30 15.4710726,29.9749355 15.6367179,29.9225495 C16.4806646,29.6556333 16.9414921,28.7774341 16.6659429,27.9611212 L14.9246765,22.8088262 C14.8697246,22.6482317 14.7888584,22.4971039 14.6844462,22.3615739 L11.6776031,18.4673864 L13.2800995,12.7954082 L17.1880036,17.0672806 C17.5059424,17.4146793 17.9487158,17.5920171 18.393068,17.5920171 C18.7714505,17.5920171 19.1514461,17.4632922 19.457612,17.2016988 C20.1225958,16.6320889 20.1846184,15.6494545 19.5965879,15.0062683 Z" id="Path"></path>
                </g>
                <text id="&lt;5" font-family="SFProText-Semibold, SF Pro Text" font-size="17" font-weight="500" letter-spacing="-0.408" fill="#FFFFFF">
                    <tspan x="99" y="269">&lt;5</tspan>
                </text>
                <path d="M53.7198038,206.184044 C53.3915024,206.184044 52.9493899,206.184044 52.6210885,206.291165 L50.7519594,201.659253 L51.0802608,199.829627 L53.2820686,199.829627 C53.8336149,199.829627 54.3807838,199.615385 54.3807838,199.075495 C54.3807838,198.535605 53.9386713,198 53.2820686,198 L50.0909793,198 C49.539433,198 49.1016978,198.321363 49.1016978,198.861253 L48.7733965,201.123648 L37.9876022,202.413385 L36.8888869,199.829627 L38.4253373,199.829627 C38.9768836,199.829627 39.6334864,199.615385 39.6334864,199.075495 C39.6334864,198.535605 39.1913738,198 38.5347711,198 L34.3544003,198 C33.802854,198 33.2556851,198.432769 33.2556851,199.075495 C33.2556851,199.615385 33.8072314,199.829627 34.4638341,199.829627 L34.5732679,199.829627 L36.2235295,203.274638 L34.0217216,206.719649 C33.2513077,206.398286 32.3714601,206.179759 31.4916124,206.179759 C27.8627879,206.179759 25,209.089165 25,212.534177 C25,216.086309 27.9722217,218.888594 31.4916124,218.888594 C34.6827017,218.888594 37.4316785,216.626199 37.9832248,213.609671 L41.7258604,213.609671 L41.7258604,213.39543 C41.8352942,213.39543 42.0541618,213.39543 42.1679729,213.288309 C42.2774067,213.181188 42.3868405,213.181188 42.4962743,213.074067 L49.6488668,203.600286 L50.8570158,206.831055 C48.5457742,207.799429 47.0049464,210.061824 47.0049464,212.645583 C47.0049464,216.197715 49.9771682,219 53.4965588,219 C57.1253833,219 59.9881712,216.090594 59.9881712,212.645583 C60.2114162,209.089165 57.2435718,206.184044 53.7198038,206.184044 L53.7198038,206.184044 Z M38.3342175,212 C38.1131742,210.222363 37.22458,208.776374 36,207.666456 L37.6666667,205 L41,212 L38.3342175,212 Z M42.0014735,211 L39,204.013453 L48,203 L42.0014735,211 Z M43.9755102,215 L42.0244898,215 C41.5102041,215 41,215.373134 41,216.124378 C41,216.751244 41.8204082,217 42.3346939,217 L43.9755102,217 C44.4897959,217 45,216.875622 45,216.124378 C45,215.378109 44.5918367,215 43.9755102,215 Z" id="Shape" fill="#00EEFF" fill-rule="nonzero"></path>
                <g id="Car-" transform="translate(24.000000, 155.000000)" fill="#90FF1F" fill-rule="nonzero">
                    <path d="M28.5313642,4.53333332 C27.4478946,3.74 22.1509325,0 14.3258748,0 C12.1589358,0 8.90852722,0 6.01927515,1.13333332 C4.81542012,1.66222223 3.65169359,2.38000001 2.52809556,3.28666668 C0.842698508,4.64666668 0,6.34666668 0,8.5 C0,8.61333332 0.120385491,14.5066667 2.76886658,14.7333333 C3.49117959,16.0933333 4.93580563,17 6.62120264,17 C8.30659969,17 9.75122573,16.0933333 10.3531533,14.7333333 L24.4382571,14.7333333 C25.1605701,16.0933333 26.6051961,17 28.1702077,17 C29.7352192,17 31.3002307,16.0933333 31.9021582,14.7333333 L33.8283263,14.7333333 C34.5506393,14.7333333 35.9952653,13.94 35.9952653,12.6933333 L35.9952653,9.18 C36.1156508,7.82 33.9487118,4.64666668 28.5313642,4.53333332 Z M3.73195058,13.8266667 C3.73195058,13.7133334 3.61156508,13.6 3.61156508,13.4866667 L3.61156508,13.0333333 C3.61156508,11.4466666 4.93580563,10.2 6.62120264,10.2 C8.30659966,10.2 9.63084024,11.4466667 9.63084024,13.0333333 L9.63084024,13.4866667 C9.63084024,13.6 9.51045474,13.8266667 9.51045471,13.94 C9.02891271,15.0733333 7.94544318,15.8666667 6.62120264,15.8666667 C5.2969621,15.8666667 4.09310708,14.96 3.73195058,13.8266667 Z M25.4013411,13.8266667 C25.4013411,13.7133334 25.2809556,13.6 25.2809556,13.4866667 L25.2809556,13.0333333 C25.2809556,11.4466666 26.6051961,10.2 28.2905931,10.2 C29.9759902,10.2 31.3002307,11.4466667 31.3002307,13.0333333 L31.3002307,13.4866667 C31.3002307,13.6 31.1798452,13.8266667 31.1798452,13.94 C30.6983032,15.0733333 29.6148337,15.8666667 28.2905931,15.8666667 C26.9663526,15.8666667 25.7624976,14.96 25.4013411,13.8266667 Z" id="Shape"></path>
                </g>
                <text id="&lt;80" font-family="SFProText-Semibold, SF Pro Text" font-size="17" font-weight="500" letter-spacing="-0.408" fill="#FFFFFF">
                    <tspan x="92" y="170">&lt;80</tspan>
                </text>
                <g id="Group-2" transform="translate(0.000000, 110.000000)">
                    <g id="Car--Copy-2" transform="translate(27.000000, 0.000000)" fill="#F2FF00" fill-rule="nonzero">
                        <path d="M28.5313642,5.10841532 C27.4478946,4.30341533 22.1509325,0.508415335 14.3258748,0.508415335 C12.1589358,0.508415335 8.90852722,0.508415335 6.01927515,1.65841532 L1.80578254,1.65841532 C1.56501152,1.65841532 1.32424054,1.77341531 1.20385502,2.00341532 C1.20385502,2.23341533 1.20385502,2.46341531 1.32424054,2.69341532 L2.52809556,3.84341535 C0.842698508,5.22341535 1.13686838e-13,6.94841535 1.13686838e-13,9.13341533 C1.13686838e-13,9.24841532 0.120385491,15.2284153 2.76886658,15.4584153 C3.49117959,16.8384153 4.93580563,17.7584153 6.62120264,17.7584153 C8.30659969,17.7584153 9.75122573,16.8384153 10.3531533,15.4584153 L24.4382571,15.4584153 C25.1605701,16.8384153 26.6051961,17.7584153 28.1702077,17.7584153 C29.7352192,17.7584153 31.3002307,16.8384153 31.9021582,15.4584153 L33.8283263,15.4584153 C34.5506393,15.4584153 35.9952653,14.6534153 35.9952653,13.3884153 L35.9952653,9.82341533 C36.1156508,8.44341533 33.9487118,5.22341535 28.5313642,5.10841532 Z M6.62120264,16.6084153 C5.2969621,16.6084153 4.09310708,15.6884153 3.73195058,14.5384153 C3.73195058,14.4234154 3.61156508,14.3084153 3.61156508,14.1934153 L3.61156508,13.7334153 C3.61156508,12.1234153 4.93580563,10.8584153 6.62120264,10.8584153 C8.30659966,10.8584153 9.63084024,12.1234153 9.63084024,13.7334153 L9.63084024,14.1934153 C9.63084024,14.3084153 9.51045474,14.5384153 9.51045471,14.6534153 C9.02891271,15.8034153 7.94544318,16.6084153 6.62120264,16.6084153 L6.62120264,16.6084153 Z M28.2905931,16.6084153 C26.9663526,16.6084153 25.7624976,15.6884153 25.4013411,14.5384153 C25.4013411,14.4234154 25.2809556,14.3084153 25.2809556,14.1934153 L25.2809556,13.7334153 C25.2809556,12.1234153 26.6051961,10.8584153 28.2905931,10.8584153 C29.9759902,10.8584153 31.3002307,12.1234153 31.3002307,13.7334153 L31.3002307,14.1934153 C31.3002307,14.3084153 31.1798452,14.5384153 31.1798452,14.6534153 C30.6983032,15.8034153 29.6148337,16.6084153 28.2905931,16.6084153 L28.2905931,16.6084153 Z" id="Shape"></path>
                    </g>
                    <path d="M22.6296296,3.5 L3.21160432,3.5" id="Line" stroke="url(#linearGradient-1)" stroke-width="2" stroke-linecap="round"></path>
                    <path d="M19.6296296,9.5 L0.211604323,9.5" id="Line" stroke="url(#linearGradient-1)" stroke-width="2" stroke-linecap="round"></path>
                    <path d="M21.6296296,15.5 L2.21160432,15.5" id="Line" stroke="url(#linearGradient-1)" stroke-width="2" stroke-linecap="round"></path>
                </g>
                <text id="&lt;200" font-family="SFProText-Semibold, SF Pro Text" font-size="17" font-weight="500" letter-spacing="-0.408" fill="#FFFFFF">
                    <tspan x="80" y="120">&lt;200</tspan>
                </text>
                <g id="plane" transform="translate(28.000000, 54.000000)" fill="#FF7E00" fill-rule="nonzero">
                    <path d="M16.9850491,9.67699046 L17.6844654,9.67699046 C18.2768048,9.67699046 18.5741137,9.41995626 18.5741137,8.90009879 C18.5741137,8.3107726 18.0230671,8.01466228 16.9206892,8.01466228 L15.7679055,8.01466228 L14.0236367,5.65504196 L14.8475011,5.65504196 C15.3985477,5.65504196 15.6742133,5.39511323 15.6742133,4.8804659 C15.6742133,4.28650849 15.2909014,3.99271375 14.5217144,3.99271375 L12.8389577,3.99271375 C10.8959134,1.33177294 9.67165027,0 9.1607575,0 C8.92382173,0 8.66695142,0.0981245441 8.39100099,0.294663077 C8.11476577,0.489175441 7.97864161,0.698739376 7.97864161,0.919302517 C7.97864161,1.14160238 8.27110921,1.71442971 8.85718354,2.63865293 C9.44211875,3.56171834 10.2967393,5.28888398 11.4127866,7.81667646 C12.5302578,10.3447584 13.088139,11.8745171 13.088139,12.4013215 C13.088139,12.7394025 12.5897765,12.9258102 11.5902036,12.9579395 C8.31040867,12.9782012 5.95813755,13.1356636 4.53395985,13.4303266 C4.36764917,13.283574 3.95984622,12.7472177 3.31140538,11.8241523 C2.66125585,10.9010869 2.21443828,10.3499685 1.97123736,10.177744 C1.72575823,10.0040723 1.29403388,9.91607857 0.670653575,9.91607857 C0.338032175,9.91607857 0.113911434,9.9644172 0,10.0593578 C0,10.4689337 0.491527832,11.9538272 1.47885519,14.5085388 C0.491812575,16.8319775 0.000284742504,18.3139766 0.000284742504,18.9585882 C0.114196176,19.0529499 0.338316918,19.1009991 0.670938317,19.1009991 C1.29403388,19.1009991 1.72319519,19.0170577 1.96269397,18.84657 C2.2030471,18.6786873 2.6498647,18.130174 3.30343155,17.2001617 C3.95756797,16.2715967 4.36793391,15.7335037 4.5342446,15.5858827 C5.95813752,15.8492848 7.6035882,15.9905379 9.48170298,16.0113785 C11.354407,16.035982 12.4277374,16.0892413 12.6908729,16.1795506 C12.9565713,16.2701494 13.0887085,16.414297 13.0887085,16.6137301 C13.0887085,17.1324297 12.5308273,18.6563994 11.4133561,21.1905598 C10.2973088,23.7258781 9.44268829,25.4547805 8.85775308,26.3769775 C8.27139398,27.3029374 7.97921115,27.8748964 7.97921115,28.0977752 C7.97921115,28.3183383 8.11533531,28.5241394 8.39157053,28.713731 C8.66723621,28.9041911 8.92439127,29 9.16132704,29 C9.67221981,29 10.896483,27.6737267 12.839812,25.0240745 L14.5225687,25.0240745 C15.2917556,25.0240745 15.6750676,24.7285431 15.6750676,24.1371907 C15.6750676,23.6179121 15.3991172,23.3608779 14.8483554,23.3608779 L14.0244909,23.3608779 L15.7687598,21.0027049 L16.9215435,21.0027049 C18.0239214,21.0027049 18.5749679,20.7060156 18.5749679,20.1166895 C18.5749679,19.5965425 18.2776591,19.3383505 17.6853196,19.3383505 L16.9859034,19.3383505 L19.7585077,15.9969059 L23.374911,15.9969059 C26.4573544,15.9969059 28,15.4741539 28,14.4292288 C28,14.0176267 27.3794675,13.6786773 26.1364089,13.4149857 C24.8970525,13.1538991 23.9760786,13.0207508 23.374911,13.0207508 L19.7579382,13.0207508 L16.9850491,9.67699046 Z" id="Path"></path>
                </g>
                <text id="Δt-=-0" font-family="SFProText-Semibold, SF Pro Text" font-size="17" font-weight="500" letter-spacing="-0.408" fill="#FFFFFF">
                    <tspan x="75" y="21">Δt = 0</tspan>
                </text>
                <text id="0" font-family="SFProText-Semibold, SF Pro Text" font-size="17" font-weight="500" letter-spacing="-0.408" fill="#FFFFFF">
                    <tspan x="107" y="318">0</tspan>
                </text>
                <g id="kuaisu-copy-2" transform="translate(42.500000, 14.000000) rotate(-360.000000) translate(-42.500000, -14.000000) translate(29.000000, 0.000000)" fill="#FF4200" fill-rule="nonzero">
                    <path d="M25.1290999,10.8655039 C24.1604122,13.1804873 22.7119814,15.2546993 20.8830727,16.9459883 C20.5558483,17.2427956 20.2170671,17.5275716 19.866729,17.8003164 C19.7358416,19.199428 19.2340441,20.5359391 18.4150432,21.6668047 C17.544691,22.8967369 16.5129828,23.9992919 15.3487304,24.9436797 C13.9843273,26.0800971 12.5134772,27.0769326 10.957446,27.9197734 C10.8601029,27.9713069 10.7522295,27.998789 10.6425388,28 C10.4135084,27.9983369 10.1991135,27.8850045 10.0658844,27.6951719 C9.86325028,27.3997908 9.89461369,26.9994824 10.1406732,26.7406016 C10.6565393,26.1601104 11.1028905,25.5192198 11.4703408,24.8314062 C12.2106194,23.4913828 12.651219,22.0012591 12.7606417,20.4675625 C11.6092917,20.0022813 10.2327973,18.6666758 9.61559533,18.0289375 C8.9983934,17.3911992 7.71085651,15.9593164 7.26172135,14.7640938 C5.77803771,14.8803292 4.33963533,15.3383903 3.05503402,16.1037188 C2.38761794,16.4855984 1.76835672,16.9489258 1.210942,17.483457 C1.07802936,17.6194819 0.897427421,17.6959736 0.709049494,17.6960273 C0.55910293,17.6963489 0.413101677,17.6470884 0.29297489,17.5556445 C0.01134707,17.3420311 -0.080239123,16.9538622 0.0753172887,16.6331484 C0.886370037,15.0254634 1.84729642,13.5009937 2.94482322,12.0807969 C3.84918958,10.8762392 4.91364868,9.80576651 6.10758058,8.90017188 C7.18825146,8.05364489 8.47938846,7.53133582 9.8356144,7.39205469 C10.0965835,7.03108984 10.3717214,6.67810938 10.6622356,6.34123438 C12.2779049,4.45415361 14.2798864,2.95088121 16.5272372,1.93725 C19.3219544,0.65778125 22.6059785,0.00401953125 26.291479,0.00401953125 L26.291479,0 L27,0 L27,0.738007812 C26.9921105,4.56039063 26.364282,7.96561719 25.1290731,10.8655039 L25.1290999,10.8655039 Z M21.288368,9.78822316 C21.2558298,7.79261037 19.7310517,6.19968522 17.8751553,6.2224635 C16.0192589,6.24524177 14.5286855,7.87517573 14.5384615,9.8710673 C14.5483341,11.8669589 16.0548694,13.4798324 17.910886,13.4814815 C19.7918478,13.4644359 21.3039019,11.8110249 21.2883425,9.78827801 L21.288368,9.78822316 Z M17.6874033,11.9256529 C16.8446156,11.9392644 16.0771766,11.4428264 15.7450261,10.6691754 C15.4128755,9.89552441 15.5818979,8.99811993 16.1728194,8.39785732 C16.7637409,7.79759471 17.6593478,7.61354061 18.4395877,7.93201899 C19.2198276,8.25049736 19.7299341,9.00833561 19.7306601,9.85009693 C19.7362917,10.3964705 19.5237457,10.9225769 19.1400232,11.3120759 C18.7563007,11.701575 18.2330164,11.9223762 17.6858861,11.9256529 L17.6874033,11.9256529 Z M6.57339614,19.7037037 C7.02624975,19.7321926 7.44788552,19.9566639 7.73872236,20.3241026 C8.17248446,20.7039407 8.38069877,21.2995544 8.28462056,21.8856881 C8.17303082,22.4216963 7.71633898,23.3037837 6.17586622,24.4391003 C4.72638476,25.4521859 3.17814228,26.2983106 1.55769231,26.962963 C2.21204767,25.0878571 3.07981383,23.3035835 4.14192308,21.6493484 C5.01735589,20.3747427 5.85914548,19.7037037 6.57339614,19.7037037 L6.57339614,19.7037037 Z" id="Shape"></path>
                </g>
                <text id="&gt;200-copy" font-family="SFProText-Semibold, SF Pro Text" font-size="17" font-weight="500" letter-spacing="-0.408" fill="#FFFFFF">
                    <tspan x="80" y="71">&gt;200</tspan>
                </text>
                <g id="woniu" transform="translate(25.000000, 300.000000)" fill="#FF00FC" fill-rule="nonzero">
                    <path d="M32.4083494,2.41826097 C32.3370833,2.87994107 31.8744578,3.03636947 31.6768945,3.38920234 C31.2437628,4.16665792 30.9726431,5.45646505 30.5526412,6.62943511 C30.1046764,7.87910021 29.3944603,9.23339332 29.6971552,10.4536367 C29.8703972,11.1524864 30.7890613,11.7493847 30.9040864,12.468777 C30.9954592,13.0375859 30.7343875,13.5236771 30.8424732,14.0255068 C30.9696268,14.6139232 31.5583129,14.6924789 31.5138948,15.3248609 C30.9336004,15.3255474 30.827704,14.5184347 30.4436308,14.542869 C30.4330653,15.3819263 31.160158,15.8374843 31.1164344,16.4918054 C30.4518368,16.1832918 30.3632989,15.3152955 29.777425,14.93024 C25.8567791,15.0689218 24.5042061,17.632685 22.7218608,20.033671 C21.7988605,21.2770278 21.2917892,22.6648394 19.3953178,22.8132851 C17.884779,22.9305992 16.2732985,22.6271502 14.6574698,22.5387922 C13.1124686,22.4549135 11.5537183,22.3831804 10.0529059,22.2007187 C6.96728008,21.8270106 3.87418961,21.6738684 1.57541093,20.8138276 C1.77991593,20.2739421 2.37665571,20.1197464 2.90742117,19.9092905 C3.38373365,19.7206074 3.90159627,19.3906779 4.44014564,19.265556 C5.64812355,18.9846297 7.14421007,19.0573923 8.50794656,18.8878396 C9.74201389,18.7349577 11.276652,18.507422 12.0408465,17.9911622 C12.5592736,17.6411256 13.0828816,16.93381 13.3809414,16.2497883 C13.7642641,15.3746848 14.2021155,14.4329889 14.2898808,13.6325542 C14.5452298,11.2958184 13.5225615,9.16051756 11.5438823,8.25878738 C9.77417449,7.45091988 6.16291163,7.89609784 4.72128478,9.01967386 C4.03735573,9.55262855 3.06747732,11.0614543 3.09814779,12.2656429 C3.1464147,14.0938695 4.78681116,15.6555326 7.29663162,15.2523969 C8.85438516,15.0017753 10.4659128,13.4948508 9.94306699,10.9973332 C9.6822689,9.74796696 7.42024935,9.27896313 5.85008717,10.1779067 C4.67965866,10.8477182 4.4493476,12.9190958 5.8225149,13.3674629 C8.09381514,14.0555812 8.38843689,10.7384451 6.82222754,10.8891061 C6.47954132,10.9221962 6.06712095,11.1566638 6.30727214,11.8087946 C6.44946511,12.1943394 6.51883803,12.3663479 7.02383332,12.3337475 C7.04385463,12.7286734 6.99679969,12.9366718 6.5757626,12.8852481 C5.53155681,12.7577132 5.14042791,11.4195049 6.15459365,10.6779267 C6.75421729,10.2403872 8.30622444,10.2974641 8.88622242,11.0115564 C9.64549951,11.9449501 9.01209378,13.4916566 8.37078623,14.0271773 C7.44070813,14.8055708 5.19625267,14.9706024 4.43683346,13.7885893 C3.47277602,12.2927475 4.10550999,10.2839019 5.15266532,9.46990941 C6.56992153,8.36880619 10.1419845,8.20207075 11.6651947,9.14264438 C14.344939,10.7972219 13.2406479,14.8638503 11.4566863,16.8167651 C10.2015132,17.8017365 8.43446917,18.402173 6.24866574,18.6119005 C5.36344398,18.6969773 4.30688071,18.5608155 3.57721242,18.2856204 C2.68630186,17.9496121 1.54416556,16.9918253 1.36088576,15.8840645 C0.817435623,12.6004099 2.25409854,9.40385337 4.02290328,7.89310204 C5.67982509,6.47646396 8.50773515,5.8493557 11.1372674,5.85729007 C15.9808457,5.87190511 19.4405001,8.84992917 20.8325028,12.957562 C22.0640325,12.5920056 23.1448991,11.9389859 24.2963378,11.4104887 C25.4452755,10.883812 26.7133295,10.5756458 27.8293088,9.92882565 C27.9219654,8.68357269 28.2199011,7.55410825 28.4846343,6.42819979 C28.5650564,6.09024746 28.5637072,5.65394139 28.8826977,5.45625244 C29.122037,5.44052189 29.1277043,5.65198703 29.3501723,5.65204895 C29.2588036,6.09782502 28.8531063,6.83027072 29.0236019,7.85694799 C29.8292305,5.94598743 30.7593122,4.15544637 31.7415662,2.41624901 C31.7991717,1.99535483 32.2227252,2.37626436 32.4083494,2.41826097 Z" id="Path" transform="translate(16.826350, 12.529976) rotate(-7.000000) translate(-16.826350, -12.529976) "></path>
                </g>
                <text id="&lt;25" font-family="SFProText-Semibold, SF Pro Text" font-size="17" font-weight="500" letter-spacing="-0.408" fill="#FFFFFF">
                    <tspan x="91" y="219">&lt;25</tspan>
                </text>
            </g>
        </g>
    </g>
</svg>
